<svg width="1440" height="585" viewBox="0 0 1440 585" fill="none" xmlns="http://www.w3.org/2000/svg">
<g opacity="0.6">
<rect y="150" width="1440" height="234" fill="#749AAA"/>
<path d="M247 462.5L362.5 383.5H-2L247 462.5Z" fill="#749AAA"/>
<path d="M1075.82 208.823L1368.82 497.323L970.5 406.5L1075.82 208.823Z" fill="#749AAA"/>
<path d="M510.5 521.5L1109.5 378.5H331.809L510.5 521.5Z" fill="#749AAA"/>
<path d="M0 580L247.384 462.5L0 370V580Z" fill="#749AAA"/>
<path d="M1440 584.5V297.5L1337.5 490.5L1440 584.5Z" fill="#749AAA"/>
<path d="M1372.5 494L1430.84 371.5H1174.5L1372.5 494Z" fill="#749AAA"/>
</g>
<path d="M230.576 211.885L2.76503 147.408L458.65 148.347L230.576 211.885Z" fill="white"/>
<path d="M1195.21 244.165L894.641 147.624L1496.17 148.863L1195.21 244.165Z" fill="white"/>
<path d="M876.297 214.069L382.542 146.563L1370.33 148.598L876.297 214.069Z" fill="white"/>
<path d="M904.291 181.61L603.597 147.828L1205.12 149.067L904.291 181.61Z" fill="white"/>
</svg>